{
    "asset" : {
        "generator" : "Khronos glTF Blender I/O v1.8.19",
        "version" : "2.0"
    },
    "scene" : 0,
    "scenes" : [
        {
            "name" : "Scene",
            "nodes" : [
                0,
                1,
                2,
                3,
                4,
                5
            ]
        }
    ],
    "nodes" : [
        {
            "mesh" : 0,
            "name" : "Torus.002",
            "scale" : [
                0.9771292805671692,
                0.9771292805671692,
                0.9771292805671692
            ],
            "translation" : [
                0,
                0.2324650138616562,
                0
            ]
        },
        {
            "mesh" : 1,
            "name" : "Torus.001",
            "scale" : [
                0.9663666486740112,
                0.9663666486740112,
                0.9663666486740112
            ],
            "translation" : [
                0,
                0.2324650138616562,
                0
            ]
        },
        {
            "mesh" : 2,
            "name" : "Cylinder",
            "rotation" : [
                0,
                0,
                -0.7071068286895752,
                0.7071068286895752
            ],
            "scale" : [
                0.012400755658745766,
                0.05058768019080162,
                0.012400755658745766
            ],
            "translation" : [
                -0.4285839796066284,
                0.5024823546409607,
                -0.3779337704181671
            ]
        },
        {
            "mesh" : 3,
            "name" : "Cylinder.001",
            "rotation" : [
                0,
                0,
                -0.7071068286895752,
                0.7071068286895752
            ],
            "scale" : [
                0.012400755658745766,
                0.05058768019080162,
                0.012400755658745766
            ],
            "translation" : [
                -0.4273131489753723,
                0.5020925998687744,
                -0.38235172629356384
            ]
        },
        {
            "mesh" : 4,
            "name" : "Sphere",
            "scale" : [
                0.015750452876091003,
                0.015750452876091003,
                0.015750452876091003
            ],
            "translation" : [
                -0.42875003814697266,
                0.5017259120941162,
                -0.384066104888916
            ]
        },
        {
            "mesh" : 5,
            "name" : "Cylinder.002",
            "rotation" : [
                0,
                0,
                -0.7071068286895752,
                0.7071068286895752
            ],
            "scale" : [
                0.012400755658745766,
                -0.019412320107221603,
                0.012400755658745766
            ],
            "translation" : [
                -0.4294697940349579,
                0.5027994513511658,
                -0.37448158860206604
            ]
        }
    ],
    "materials" : [
        {
            "doubleSided" : true,
            "name" : "Material.002",
            "pbrMetallicRoughness" : {
                "baseColorFactor" : [
                    0.8000000715255737,
                    0.24275502562522888,
                    0.04352254047989845,
                    1
                ],
                "metallicFactor" : 0,
                "roughnessFactor" : 0.5
            }
        },
        {
            "doubleSided" : true,
            "name" : "Material.003",
            "pbrMetallicRoughness" : {
                "baseColorFactor" : [
                    0.0005154604441486299,
                    0.000413052475778386,
                    0.00018508953507989645,
                    1
                ],
                "metallicFactor" : 0,
                "roughnessFactor" : 0.5
            }
        },
        {
            "doubleSided" : true,
            "name" : "Material.006",
            "pbrMetallicRoughness" : {
                "baseColorFactor" : [
                    0.8000000715255737,
                    0.011012190952897072,
                    0.16250047087669373,
                    1
                ],
                "metallicFactor" : 0,
                "roughnessFactor" : 0.5
            }
        },
        {
            "doubleSided" : true,
            "name" : "Material.004",
            "pbrMetallicRoughness" : {
                "baseColorFactor" : [
                    0,
                    0.8000000715255737,
                    0.4634762704372406,
                    1
                ],
                "metallicFactor" : 0,
                "roughnessFactor" : 0.5
            }
        },
        {
            "doubleSided" : true,
            "name" : "Material.005",
            "pbrMetallicRoughness" : {
                "metallicFactor" : 0,
                "roughnessFactor" : 0.5
            }
        },
        {
            "doubleSided" : true,
            "name" : "Material.007",
            "pbrMetallicRoughness" : {
                "baseColorFactor" : [
                    0.17086495459079742,
                    0.8000000715255737,
                    0,
                    1
                ],
                "metallicFactor" : 0,
                "roughnessFactor" : 0.5
            }
        }
    ],
    "meshes" : [
        {
            "name" : "Torus.002",
            "primitives" : [
                {
                    "attributes" : {
                        "POSITION" : 0,
                        "NORMAL" : 1,
                        "TANGENT" : 2,
                        "TEXCOORD_0" : 3
                    },
                    "indices" : 4,
                    "material" : 0
                }
            ]
        },
        {
            "name" : "Torus.003",
            "primitives" : [
                {
                    "attributes" : {
                        "POSITION" : 5,
                        "NORMAL" : 6,
                        "TANGENT" : 7,
                        "TEXCOORD_0" : 8
                    },
                    "indices" : 9,
                    "material" : 1
                },
                {
                    "attributes" : {
                        "POSITION" : 10
                    },
                    "indices" : 11,
                    "material" : 1,
                    "mode" : 1
                },
                {
                    "attributes" : {
                        "POSITION" : 12
                    },
                    "material" : 1,
                    "mode" : 0
                }
            ]
        },
        {
            "name" : "Cylinder.001",
            "primitives" : [
                {
                    "attributes" : {
                        "POSITION" : 13,
                        "NORMAL" : 14,
                        "TEXCOORD_0" : 15
                    },
                    "indices" : 16,
                    "material" : 2
                }
            ]
        },
        {
            "name" : "Cylinder.002",
            "primitives" : [
                {
                    "attributes" : {
                        "POSITION" : 17,
                        "NORMAL" : 18,
                        "TEXCOORD_0" : 19
                    },
                    "indices" : 20,
                    "material" : 3
                }
            ]
        },
        {
            "name" : "Sphere",
            "primitives" : [
                {
                    "attributes" : {
                        "POSITION" : 21,
                        "NORMAL" : 22,
                        "TANGENT" : 23,
                        "TEXCOORD_0" : 24
                    },
                    "indices" : 25,
                    "material" : 4
                }
            ]
        },
        {
            "name" : "Cylinder.003",
            "primitives" : [
                {
                    "attributes" : {
                        "POSITION" : 26,
                        "NORMAL" : 27,
                        "TEXCOORD_0" : 28
                    },
                    "indices" : 16,
                    "material" : 5
                }
            ]
        }
    ],
    "accessors" : [
        {
            "bufferView" : 0,
            "componentType" : 5126,
            "count" : 7382,
            "max" : [
                0.7180797457695007,
                0.30442097783088684,
                0.7852095365524292
            ],
            "min" : [
                -0.7856088280677795,
                -0.2817077934741974,
                -0.7730696797370911
            ],
            "type" : "VEC3"
        },
        {
            "bufferView" : 1,
            "componentType" : 5126,
            "count" : 7382,
            "type" : "VEC3"
        },
        {
            "bufferView" : 2,
            "componentType" : 5126,
            "count" : 7382,
            "type" : "VEC4"
        },
        {
            "bufferView" : 3,
            "componentType" : 5126,
            "count" : 7382,
            "type" : "VEC2"
        },
        {
            "bufferView" : 4,
            "componentType" : 5123,
            "count" : 43200,
            "type" : "SCALAR"
        },
        {
            "bufferView" : 5,
            "componentType" : 5126,
            "count" : 34223,
            "max" : [
                0.7339542508125305,
                0.3398725390434265,
                0.7272343635559082
            ],
            "min" : [
                -0.7957348823547363,
                -0.20153702795505524,
                -0.7635796666145325
            ],
            "type" : "VEC3"
        },
        {
            "bufferView" : 6,
            "componentType" : 5126,
            "count" : 34223,
            "type" : "VEC3"
        },
        {
            "bufferView" : 7,
            "componentType" : 5126,
            "count" : 34223,
            "type" : "VEC4"
        },
        {
            "bufferView" : 8,
            "componentType" : 5126,
            "count" : 34223,
            "type" : "VEC2"
        },
        {
            "bufferView" : 9,
            "componentType" : 5123,
            "count" : 189168,
            "type" : "SCALAR"
        },
        {
            "bufferView" : 10,
            "componentType" : 5126,
            "count" : 138,
            "max" : [
                0.305238276720047,
                -0.09669413417577744,
                0.35594114661216736
            ],
            "min" : [
                -0.29369691014289856,
                -0.23805081844329834,
                -0.39693474769592285
            ],
            "type" : "VEC3"
        },
        {
            "bufferView" : 11,
            "componentType" : 5123,
            "count" : 232,
            "type" : "SCALAR"
        },
        {
            "bufferView" : 12,
            "componentType" : 5126,
            "count" : 6,
            "max" : [
                0.5431249141693115,
                0.0007685322198085487,
                0.3738299012184143
            ],
            "min" : [
                -0.09838350117206573,
                -0.20312443375587463,
                -0.4854547381401062
            ],
            "type" : "VEC3"
        },
        {
            "bufferView" : 13,
            "componentType" : 5126,
            "count" : 192,
            "max" : [
                1,
                1,
                1
            ],
            "min" : [
                -1,
                -1,
                -1
            ],
            "type" : "VEC3"
        },
        {
            "bufferView" : 14,
            "componentType" : 5126,
            "count" : 192,
            "type" : "VEC3"
        },
        {
            "bufferView" : 15,
            "componentType" : 5126,
            "count" : 192,
            "type" : "VEC2"
        },
        {
            "bufferView" : 16,
            "componentType" : 5123,
            "count" : 372,
            "type" : "SCALAR"
        },
        {
            "bufferView" : 17,
            "componentType" : 5126,
            "count" : 926,
            "max" : [
                1.0103893280029297,
                1.0000001192092896,
                1
            ],
            "min" : [
                -1,
                -1.0584979057312012,
                -2.195300579071045
            ],
            "type" : "VEC3"
        },
        {
            "bufferView" : 18,
            "componentType" : 5126,
            "count" : 926,
            "type" : "VEC3"
        },
        {
            "bufferView" : 19,
            "componentType" : 5126,
            "count" : 926,
            "type" : "VEC2"
        },
        {
            "bufferView" : 20,
            "componentType" : 5123,
            "count" : 1524,
            "type" : "SCALAR"
        },
        {
            "bufferView" : 21,
            "componentType" : 5126,
            "count" : 1984,
            "max" : [
                1.000000238418579,
                1,
                1.0000003576278687
            ],
            "min" : [
                -0.9999998211860657,
                -1,
                -1
            ],
            "type" : "VEC3"
        },
        {
            "bufferView" : 22,
            "componentType" : 5126,
            "count" : 1984,
            "type" : "VEC3"
        },
        {
            "bufferView" : 23,
            "componentType" : 5126,
            "count" : 1984,
            "type" : "VEC4"
        },
        {
            "bufferView" : 24,
            "componentType" : 5126,
            "count" : 1984,
            "type" : "VEC2"
        },
        {
            "bufferView" : 25,
            "componentType" : 5123,
            "count" : 2880,
            "type" : "SCALAR"
        },
        {
            "bufferView" : 26,
            "componentType" : 5126,
            "count" : 192,
            "max" : [
                1,
                1,
                1
            ],
            "min" : [
                -1,
                -1,
                -1
            ],
            "type" : "VEC3"
        },
        {
            "bufferView" : 27,
            "componentType" : 5126,
            "count" : 192,
            "type" : "VEC3"
        },
        {
            "bufferView" : 28,
            "componentType" : 5126,
            "count" : 192,
            "type" : "VEC2"
        }
    ],
    "bufferViews" : [
        {
            "buffer" : 0,
            "byteLength" : 88584,
            "byteOffset" : 0
        },
        {
            "buffer" : 0,
            "byteLength" : 88584,
            "byteOffset" : 88584
        },
        {
            "buffer" : 0,
            "byteLength" : 118112,
            "byteOffset" : 177168
        },
        {
            "buffer" : 0,
            "byteLength" : 59056,
            "byteOffset" : 295280
        },
        {
            "buffer" : 0,
            "byteLength" : 86400,
            "byteOffset" : 354336
        },
        {
            "buffer" : 0,
            "byteLength" : 410676,
            "byteOffset" : 440736
        },
        {
            "buffer" : 0,
            "byteLength" : 410676,
            "byteOffset" : 851412
        },
        {
            "buffer" : 0,
            "byteLength" : 547568,
            "byteOffset" : 1262088
        },
        {
            "buffer" : 0,
            "byteLength" : 273784,
            "byteOffset" : 1809656
        },
        {
            "buffer" : 0,
            "byteLength" : 378336,
            "byteOffset" : 2083440
        },
        {
            "buffer" : 0,
            "byteLength" : 1656,
            "byteOffset" : 2461776
        },
        {
            "buffer" : 0,
            "byteLength" : 464,
            "byteOffset" : 2463432
        },
        {
            "buffer" : 0,
            "byteLength" : 72,
            "byteOffset" : 2463896
        },
        {
            "buffer" : 0,
            "byteLength" : 2304,
            "byteOffset" : 2463968
        },
        {
            "buffer" : 0,
            "byteLength" : 2304,
            "byteOffset" : 2466272
        },
        {
            "buffer" : 0,
            "byteLength" : 1536,
            "byteOffset" : 2468576
        },
        {
            "buffer" : 0,
            "byteLength" : 744,
            "byteOffset" : 2470112
        },
        {
            "buffer" : 0,
            "byteLength" : 11112,
            "byteOffset" : 2470856
        },
        {
            "buffer" : 0,
            "byteLength" : 11112,
            "byteOffset" : 2481968
        },
        {
            "buffer" : 0,
            "byteLength" : 7408,
            "byteOffset" : 2493080
        },
        {
            "buffer" : 0,
            "byteLength" : 3048,
            "byteOffset" : 2500488
        },
        {
            "buffer" : 0,
            "byteLength" : 23808,
            "byteOffset" : 2503536
        },
        {
            "buffer" : 0,
            "byteLength" : 23808,
            "byteOffset" : 2527344
        },
        {
            "buffer" : 0,
            "byteLength" : 31744,
            "byteOffset" : 2551152
        },
        {
            "buffer" : 0,
            "byteLength" : 15872,
            "byteOffset" : 2582896
        },
        {
            "buffer" : 0,
            "byteLength" : 5760,
            "byteOffset" : 2598768
        },
        {
            "buffer" : 0,
            "byteLength" : 2304,
            "byteOffset" : 2604528
        },
        {
            "buffer" : 0,
            "byteLength" : 2304,
            "byteOffset" : 2606832
        },
        {
            "buffer" : 0,
            "byteLength" : 1536,
            "byteOffset" : 2609136
        }
    ],
    "buffers" : [
        {
            "byteLength" : 2610672,
            "uri" : "data:application/octet-stream;base64,"
        }
    ]
}
