{
    "asset" : {
        "generator" : "Khronos glTF Blender I/O v1.8.19",
        "version" : "2.0"
    },
    "scene" : 0,
    "scenes" : [
        {
            "name" : "Scene",
            "nodes" : [
                0,
                1,
                2
            ]
        }
    ],
    "nodes" : [
        {
            "mesh" : 0,
            "name" : "Sphere",
            "rotation" : [
                -0.2460891306400299,
                -0.029516905546188354,
                0.022137343883514404,
                0.9685447216033936
            ],
            "scale" : [
                0.44602447748184204,
                0.4460243880748749,
                0.44602444767951965
            ],
            "translation" : [
                0,
                0.9584214687347412,
                -0.2568623125553131
            ]
        },
        {
            "mesh" : 1,
            "name" : "Sphere.001",
            "rotation" : [
                -0.2460891306400299,
                -0.029516905546188354,
                0.022137343883514404,
                0.9685447216033936
            ],
            "scale" : [
                0.44866859912872314,
                0.44866862893104553,
                0.44866862893104553
            ],
            "translation" : [
                0,
                -0.9917054176330566,
                0.3088427186012268
            ]
        },
        {
            "mesh" : 2,
            "name" : "Sphere.002",
            "rotation" : [
                0.5735764503479004,
                0,
                0,
                0.8191520571708679
            ],
            "scale" : [
                0.15752951800823212,
                0.1575295329093933,
                0.1575295329093933
            ]
        }
    ],
    "materials" : [
        {
            "doubleSided" : true,
            "name" : "Material.003",
            "pbrMetallicRoughness" : {
                "baseColorFactor" : [
                    0.029999999329447746,
                    0.029999999329447746,
                    0.029999999329447746,
                    1
                ],
                "metallicFactor" : 0
            }
        },
        {
            "doubleSided" : true,
            "name" : "Material.006",
            "pbrMetallicRoughness" : {
                "baseColorFactor" : [
                    0.029999999329447746,
                    0.029999999329447746,
                    0.029999999329447746,
                    1
                ],
                "metallicFactor" : 0
            }
        },
        {
            "doubleSided" : true,
            "name" : "Material.002",
            "pbrMetallicRoughness" : {
                "baseColorFactor" : [
                    0.03310238569974899,
                    0.03310238569974899,
                    0.03310238569974899,
                    1
                ],
                "metallicFactor" : 0
            }
        }
    ],
    "meshes" : [
        {
            "name" : "Sphere",
            "primitives" : [
                {
                    "attributes" : {
                        "POSITION" : 0,
                        "NORMAL" : 1,
                        "TEXCOORD_0" : 2
                    },
                    "indices" : 3,
                    "material" : 0
                }
            ]
        },
        {
            "name" : "Sphere.001",
            "primitives" : [
                {
                    "attributes" : {
                        "POSITION" : 4,
                        "NORMAL" : 5,
                        "TEXCOORD_0" : 6
                    },
                    "indices" : 7,
                    "material" : 1
                }
            ]
        },
        {
            "name" : "Sphere.003",
            "primitives" : [
                {
                    "attributes" : {
                        "POSITION" : 8,
                        "NORMAL" : 9,
                        "TEXCOORD_0" : 10
                    },
                    "indices" : 11,
                    "material" : 2
                }
            ]
        }
    ],
    "accessors" : [
        {
            "bufferView" : 0,
            "componentType" : 5126,
            "count" : 1984,
            "max" : [
                0.9999997019767761,
                1,
                0.9999994039535522
            ],
            "min" : [
                -0.9999990463256836,
                -1,
                -0.9999987483024597
            ],
            "type" : "VEC3"
        },
        {
            "bufferView" : 1,
            "componentType" : 5126,
            "count" : 1984,
            "type" : "VEC3"
        },
        {
            "bufferView" : 2,
            "componentType" : 5126,
            "count" : 1984,
            "type" : "VEC2"
        },
        {
            "bufferView" : 3,
            "componentType" : 5123,
            "count" : 2880,
            "type" : "SCALAR"
        },
        {
            "bufferView" : 4,
            "componentType" : 5126,
            "count" : 1984,
            "max" : [
                0.9999996423721313,
                1,
                0.9999993443489075
            ],
            "min" : [
                -0.9999991059303284,
                -1,
                -0.9999988079071045
            ],
            "type" : "VEC3"
        },
        {
            "bufferView" : 5,
            "componentType" : 5126,
            "count" : 1984,
            "type" : "VEC3"
        },
        {
            "bufferView" : 6,
            "componentType" : 5126,
            "count" : 1984,
            "type" : "VEC2"
        },
        {
            "bufferView" : 7,
            "componentType" : 5123,
            "count" : 2880,
            "type" : "SCALAR"
        },
        {
            "bufferView" : 8,
            "componentType" : 5126,
            "count" : 1922,
            "max" : [
                0.980785071849823,
                10.583040237426758,
                0.9807849526405334
            ],
            "min" : [
                -0.9807848334312439,
                -10.54140567779541,
                -0.9807852506637573
            ],
            "type" : "VEC3"
        },
        {
            "bufferView" : 9,
            "componentType" : 5126,
            "count" : 1922,
            "type" : "VEC3"
        },
        {
            "bufferView" : 10,
            "componentType" : 5126,
            "count" : 1922,
            "type" : "VEC2"
        },
        {
            "bufferView" : 11,
            "componentType" : 5123,
            "count" : 2880,
            "type" : "SCALAR"
        }
    ],
    "bufferViews" : [
        {
            "buffer" : 0,
            "byteLength" : 23808,
            "byteOffset" : 0
        },
        {
            "buffer" : 0,
            "byteLength" : 23808,
            "byteOffset" : 23808
        },
        {
            "buffer" : 0,
            "byteLength" : 15872,
            "byteOffset" : 47616
        },
        {
            "buffer" : 0,
            "byteLength" : 5760,
            "byteOffset" : 63488
        },
        {
            "buffer" : 0,
            "byteLength" : 23808,
            "byteOffset" : 69248
        },
        {
            "buffer" : 0,
            "byteLength" : 23808,
            "byteOffset" : 93056
        },
        {
            "buffer" : 0,
            "byteLength" : 15872,
            "byteOffset" : 116864
        },
        {
            "buffer" : 0,
            "byteLength" : 5760,
            "byteOffset" : 132736
        },
        {
            "buffer" : 0,
            "byteLength" : 23064,
            "byteOffset" : 138496
        },
        {
            "buffer" : 0,
            "byteLength" : 23064,
            "byteOffset" : 161560
        },
        {
            "buffer" : 0,
            "byteLength" : 15376,
            "byteOffset" : 184624
        },
        {
            "buffer" : 0,
            "byteLength" : 5760,
            "byteOffset" : 200000
        }
    ],
    "buffers" : [
        {
            "byteLength" : 205760,
            "uri" : "data:application/octet-stream;base64,"
        }
    ]
}
